<svg width="15" height="14" viewBox="0 0 15 14" fill="none" xmlns="http://www.w3.org/2000/svg">
<path d="M6.82942 0.781172C7.13702 -0.122528 8.41509 -0.122518 8.72279 0.781172L9.70629 3.67063C9.84419 4.0759 10.2248 4.34841 10.6529 4.34841H13.7331C14.7131 4.34841 15.1083 5.61166 14.303 6.17013L11.8923 7.84206C11.5254 8.0965 11.3717 8.5633 11.5155 8.986L12.455 11.7461C12.7658 12.6593 11.7311 13.4398 10.9385 12.89L8.34599 11.0921C8.00319 10.8543 7.54893 10.8543 7.20619 11.0921L4.61371 12.89C3.82104 13.4398 2.78632 12.6593 3.09715 11.7461L4.03664 8.986C4.18051 8.5633 4.02675 8.0965 3.65987 7.84206L1.24913 6.17013C0.443886 5.61166 0.839076 4.34841 1.81902 4.34841H4.89923C5.32733 4.34841 5.70795 4.0759 5.8459 3.67063L6.82942 0.781172Z" fill="#FFA858"/>
</svg>
